<svg xmlns="http://www.w3.org/2000/svg" width="700.001" height="424.001" viewBox="0 0 700.001 424.001">
  <path id="Exclusion_2" data-name="Exclusion 2" d="M700-637H0v-424H700v424h0ZM342.5-733.5c-8.626,0-16.7,4.934-24,14.665s-11,19.179-11,28.085,3.2,17.931,9.5,26.836c6.636,9.9,14.375,14.914,23,14.914H574c28.2,0,53.434-13.29,75-39.5,20.57-24.883,31-51.967,31-80.5,0-32.515-8.747-60.609-26-83.5,17.252-23.224,26-47.953,26-73.5,0-33.177-8.929-61.775-26.538-85-19.606-25.215-45.889-38-78.117-38H347.5a79.748,79.748,0,0,1,18.156,6.562,47.232,47.232,0,0,1,12.969,9.688,37.655,37.655,0,0,1,7.781,12.813A46.891,46.891,0,0,1,389-1004a53.558,53.558,0,0,1-2.406,16.687,34.237,34.237,0,0,1-7.219,12.562,35.687,35.687,0,0,1-12.031,8.438A58.688,58.688,0,0,1,350.5-962H578a17.851,17.851,0,0,1,10.125,3.313,36.928,36.928,0,0,1,9.375,9.937,60.3,60.3,0,0,1,6.75,12.688A33.381,33.381,0,0,1,606.5-924.5a22.5,22.5,0,0,1-2.562,9.75,55,55,0,0,1-7.688,11.25,42.111,42.111,0,0,1-10.188,9,19.7,19.7,0,0,1-10.062,3H432.5c-8.626,0-16.7,5.047-24,15s-11,19.374-11,28c0,9.29,3.2,18.543,9.5,27.5,6.636,9.954,14.375,15,23,15H578.5a19.785,19.785,0,0,1,10.062,4.125,40.3,40.3,0,0,1,9.188,10.375,63.048,63.048,0,0,1,6.562,12.875A34.747,34.747,0,0,1,606.5-767a23.723,23.723,0,0,1-2.562,10.125,53.356,53.356,0,0,1-7.688,11.375,43.366,43.366,0,0,1-10.062,9,18.688,18.688,0,0,1-9.688,3ZM131-1049c-33.509,0-61.1,13.458-82,40-19.243,24.551-29,54.327-29,88.5v137C19.829-737.153,31-702.357,53.192-680.078,73.737-659.456,104.29-649,144-649H294a65.123,65.123,0,0,1-16.406-5.406,39.593,39.593,0,0,1-11.719-8.719,34.469,34.469,0,0,1-7.031-12.031A47.386,47.386,0,0,1,256.5-690.5a51.449,51.449,0,0,1,2.469-16.437,36.513,36.513,0,0,1,7.406-12.812,40.954,40.954,0,0,1,12.344-9.187A66.865,66.865,0,0,1,296-734.5H142.5a36.788,36.788,0,0,1-15.187-3.118,37.9,37.9,0,0,1-12.562-9.354,43.922,43.922,0,0,1-8.437-13.47,42.487,42.487,0,0,1-2.813-15.464V-917.6a59.613,59.613,0,0,1,2.631-18.026,49.3,49.3,0,0,1,7.893-15.154,33.854,33.854,0,0,1,12.652-10.29,39.925,39.925,0,0,1,16.91-3.43H309.923A33.412,33.412,0,0,0,337.477-978c6.651-7.961,10.023-17.886,10.023-29.5,0-11.28-3.28-21.121-9.75-29.25S322.281-1049,311-1049ZM348-947a38.958,38.958,0,0,0-30,13.25,45.225,45.225,0,0,0-12,31.25,45.225,45.225,0,0,0,12,31.251,38.822,38.822,0,0,0,20.2,12.167V-838h.45A38.644,38.644,0,0,0,318-825.5a45.5,45.5,0,0,0-12,31,45.225,45.225,0,0,0,12,31.251A38.961,38.961,0,0,0,348-750c11.611,0,21.536-4.458,29.5-13.25a45.226,45.226,0,0,0,12-31.251,45.5,45.5,0,0,0-12-31c-7-7.879-15.538-12.355-25.365-13.3a6.549,6.549,0,0,0,1.57-.907,6.047,6.047,0,0,0,2.117-5.023,5.11,5.11,0,0,0-.953-3.125,4.81,4.81,0,0,0-2.734-1.751,4.76,4.76,0,0,0,2.39-1.844,5.434,5.434,0,0,0,.813-3.015,5.529,5.529,0,0,0-1.43-3.931A38.406,38.406,0,0,0,377.5-871.25a45.226,45.226,0,0,0,12-31.251,45.225,45.225,0,0,0-12-31.25C369.538-942.542,359.613-947,348-947ZM160.568-860.783a10.194,10.194,0,0,0-5.374,1.434,9.421,9.421,0,0,0-3.625,4.069A13.957,13.957,0,0,0,150.3-849.2v1.322a13.5,13.5,0,0,0,1.362,5.88,9.444,9.444,0,0,0,3.618,3.94,10.26,10.26,0,0,0,5.317,1.378,10.12,10.12,0,0,0,5.342-1.426,9.451,9.451,0,0,0,3.617-4.069,13.9,13.9,0,0,0,1.273-6.074v-1.08a13.571,13.571,0,0,0-1.313-6,9.607,9.607,0,0,0-3.634-4.037A10.09,10.09,0,0,0,160.568-860.783Zm88.271,10.31v3.936h9.1v-3.936Zm-187.786,13.8a9.252,9.252,0,0,1-7.283-3.013c-1.764-2-2.659-4.862-2.659-8.509v-1.16a14.264,14.264,0,0,1,1.2-6.034,9.152,9.152,0,0,1,3.457-4,9.69,9.69,0,0,1,5.221-1.409,10.158,10.158,0,0,1,6.864,2.247,8.924,8.924,0,0,1,2.948,6.2H65.163a4.222,4.222,0,0,0-1.08-3.077,4.458,4.458,0,0,0-3.093-.935,3.392,3.392,0,0,0-3.094,1.58,10.2,10.2,0,0,0-1.031,5.044v1.66a11.281,11.281,0,0,0,.943,5.366,3.463,3.463,0,0,0,3.246,1.611,4.365,4.365,0,0,0,2.981-.918,3.918,3.918,0,0,0,1.1-2.917h5.623a8.61,8.61,0,0,1-1.321,4.326,8.008,8.008,0,0,1-3.392,2.909A11.6,11.6,0,0,1,61.053-836.677ZM439.539-837h-5.656V-860.46h9.233a10.357,10.357,0,0,1,6.526,1.85,6.3,6.3,0,0,1,2.352,5.232,7.646,7.646,0,0,1-.991,4.056,7.067,7.067,0,0,1-3.1,2.607l4.9,9.473V-837h-6.059l-4.141-8.3H439.54v8.3Zm0-19.112v6.461h3.578a3.225,3.225,0,0,0,2.425-.848,3.293,3.293,0,0,0,.814-2.367,3.33,3.33,0,0,0-.822-2.382,3.2,3.2,0,0,0-2.416-.864ZM539.3-837.687a9.459,9.459,0,0,1-6.548-2.156,7.725,7.725,0,0,1-2.437-5.907v-15h5.515v15.109a4.173,4.173,0,0,0,.914,2.8,3.335,3.335,0,0,0,2.555.933,3.372,3.372,0,0,0,2.577-.938,4.4,4.4,0,0,0,.875-3.046v-14.859h5.485v14.891a8.6,8.6,0,0,1-1.078,4.383,7.013,7.013,0,0,1-3.093,2.82A10.939,10.939,0,0,1,539.3-837.687ZM635.2-838h-5.485v-22.749H635.2v9.031h8.078v-9.031h5.453V-838h-5.453v-9.5H635.2v9.5Zm-287.771,0h-8.784A42.793,42.793,0,0,1,348-839c1.4,0,2.789.066,4.135.2A12.655,12.655,0,0,1,347.432-838ZM160.6-841.092a3.758,3.758,0,0,1-3.4-1.853,10.194,10.194,0,0,1-1.144-5.3l.016-1.724a8.972,8.972,0,0,1,1.245-4.785,3.746,3.746,0,0,1,3.251-1.6,3.763,3.763,0,0,1,3.343,1.813,9.917,9.917,0,0,1,1.168,5.31v1.079a9.922,9.922,0,0,1-1.176,5.237A3.711,3.711,0,0,1,160.6-841.092Zm186.676-1.126h-3.594v-5.453h3.844a2.528,2.528,0,0,1,2.828,2.859,2.393,2.393,0,0,1-.8,1.914A3.44,3.44,0,0,1,347.277-842.218Zm-.734-9.047h-2.859v-5.266h2.687a4.456,4.456,0,0,1,2.672.635,2.465,2.465,0,0,1,.828,2.077,2.344,2.344,0,0,1-.766,1.9A4.084,4.084,0,0,1,346.542-851.265ZM348-858a43.346,43.346,0,0,1-9.8-1.083v-1.666h8.172c2.914,0,5.161.541,6.68,1.609a5.625,5.625,0,0,1,.859.741A43.075,43.075,0,0,1,348-858Z" transform="translate(0 1061)" fill="#2c2e48"/>
</svg>
